<svg xmlns="http://www.w3.org/2000/svg" width="200" height="200" viewBox="0 0 400 400" fill="none">
<path d="M170.48 367.417C148.494 363.541 127.488 355.372 108.659 343.377C89.8306 331.381 73.5491 315.795 60.7441 297.508C47.9392 279.221 38.8616 258.59 34.0297 236.795C29.1977 214.999 28.706 192.465 32.5827 170.48C36.4593 148.494 44.6284 127.488 56.6235 108.659C68.6185 89.8306 84.2047 73.5491 102.492 60.7441C120.779 47.9392 141.41 38.8616 163.205 34.0297C185.001 29.1977 207.535 28.706 229.52 32.5827C251.506 36.4593 272.512 44.6284 291.341 56.6235C310.169 68.6185 326.451 84.2047 339.256 102.492C352.061 120.779 361.138 141.41 365.97 163.205C370.802 185.001 371.294 207.535 367.417 229.52C363.541 251.506 355.372 272.512 343.377 291.341C331.381 310.169 315.795 326.451 297.508 339.256C279.221 352.061 258.59 361.138 236.795 365.97C214.999 370.802 192.465 371.294 170.48 367.417L170.48 367.417Z" stroke="#E7EBF0" stroke-width="60"/>
<path d="M327.322 312.645C339.732 323.624 341.015 342.791 328.305 353.421C314.301 365.132 298.722 374.902 281.985 382.424C256.098 394.058 228.032 400.049 199.651 400C171.27 399.95 143.225 393.861 117.379 382.137C100.668 374.556 85.1237 364.732 71.1604 352.972C58.4878 342.298 59.8377 323.136 72.2851 312.2C84.7324 301.265 103.546 302.816 116.878 312.653C124.742 318.456 133.215 323.435 142.165 327.496C160.258 335.703 179.889 339.965 199.756 340C219.622 340.034 239.269 335.841 257.389 327.697C266.354 323.668 274.844 318.718 282.729 312.942C296.095 303.152 314.913 301.667 327.322 312.645Z" fill="#3B4559"/>
<path d="M153.6 234H104.8V217.6C110.267 213.733 114.833 210.3 118.5 207.3C122.167 204.3 125.067 201.6 127.2 199.2C129.333 196.733 130.867 194.433 131.8 192.3C132.733 190.167 133.2 187.967 133.2 185.7C133.2 182.7 132.333 180.367 130.6 178.7C128.867 176.967 126.467 176.1 123.4 176.1C117.867 176.1 112.167 178.433 106.3 183.1V167.9C112.433 163.633 119.567 161.5 127.7 161.5C135.9 161.5 142.3 163.5 146.9 167.5C151.5 171.5 153.8 177.067 153.8 184.2C153.8 188.2 152.833 192 150.9 195.6C149.033 199.133 145.933 202.833 141.6 206.7C137.333 210.5 131.533 214.767 124.2 219.5H153.6V234ZM210.059 172.9L185.859 234H165.359L188.359 177.7H159.659V162.4H210.059V172.9ZM262.062 180.7C262.062 186.633 260.728 191.3 258.062 194.7C255.395 198.1 251.662 199.8 246.862 199.8C242.062 199.8 238.295 198.2 235.562 195C232.828 191.733 231.462 187.133 231.462 181.2C231.462 175.067 232.828 170.367 235.562 167.1C238.295 163.767 242.062 162.1 246.862 162.1C251.662 162.1 255.395 163.7 258.062 166.9C260.728 170.033 262.062 174.633 262.062 180.7ZM248.662 234H236.462L280.862 162.4H293.162L248.662 234ZM243.662 180.9C243.662 184.1 243.928 186.333 244.462 187.6C244.995 188.8 245.795 189.4 246.862 189.4C247.862 189.4 248.628 188.8 249.162 187.6C249.762 186.333 250.062 184.1 250.062 180.9C250.062 177.767 249.762 175.6 249.162 174.4C248.628 173.133 247.862 172.5 246.862 172.5C245.795 172.5 244.995 173.133 244.462 174.4C243.928 175.6 243.662 177.767 243.662 180.9ZM298.062 215.4C298.062 221.333 296.695 226 293.962 229.4C291.295 232.8 287.562 234.5 282.762 234.5C277.962 234.5 274.195 232.9 271.462 229.7C268.795 226.433 267.462 221.833 267.462 215.9C267.462 209.767 268.795 205.067 271.462 201.8C274.195 198.467 277.962 196.8 282.762 196.8C287.562 196.8 291.295 198.4 293.962 201.6C296.695 204.733 298.062 209.333 298.062 215.4ZM279.562 215.7C279.562 218.833 279.828 221.033 280.362 222.3C280.962 223.5 281.795 224.1 282.862 224.1C283.862 224.1 284.628 223.5 285.162 222.3C285.762 221.033 286.062 218.833 286.062 215.7C286.062 212.567 285.762 210.367 285.162 209.1C284.628 207.833 283.828 207.2 282.762 207.2C281.695 207.2 280.895 207.833 280.362 209.1C279.828 210.367 279.562 212.567 279.562 215.7Z" fill="#3B4559"/>
</svg>