<svg xmlns="http://www.w3.org/2000/svg" width="200" height="200" viewBox="0 0 400 400" fill="none">
<path d="M170.48 367.417C148.494 363.541 127.488 355.372 108.659 343.377C89.8306 331.381 73.5491 315.795 60.7441 297.508C47.9392 279.221 38.8616 258.59 34.0297 236.795C29.1977 214.999 28.706 192.465 32.5827 170.48C36.4593 148.494 44.6284 127.488 56.6235 108.659C68.6185 89.8306 84.2047 73.5491 102.492 60.7441C120.779 47.9392 141.41 38.8616 163.205 34.0297C185.001 29.1977 207.535 28.706 229.52 32.5827C251.506 36.4593 272.512 44.6284 291.341 56.6235C310.169 68.6185 326.451 84.2047 339.256 102.492C352.061 120.779 361.138 141.41 365.97 163.205C370.802 185.001 371.294 207.535 367.417 229.52C363.541 251.506 355.372 272.512 343.377 291.341C331.381 310.169 315.795 326.451 297.508 339.256C279.221 352.061 258.59 361.138 236.795 365.97C214.999 370.802 192.465 371.294 170.48 367.417L170.48 367.417Z" stroke="#E7EBF0" stroke-width="60"/>
<path d="M358.062 137.419C373.467 131.32 391.141 138.847 394.87 154.991C399.921 176.86 401.271 199.496 398.792 221.947C395.212 254.374 383.754 285.434 365.416 312.417C347.078 339.4 322.418 361.487 293.586 376.753C264.754 392.019 232.624 400 200 400C167.376 400 135.246 392.019 106.414 376.753C77.5816 361.487 52.9215 339.4 34.5839 312.417C16.2462 285.434 4.78782 254.374 1.20781 221.947C-1.27084 199.495 0.0791729 176.86 5.13031 154.991C8.85894 138.847 26.533 131.319 41.938 137.419C57.343 143.518 64.5328 160.972 61.849 177.322C59.7921 189.852 59.4419 202.649 60.8455 215.363C63.3515 238.062 71.3723 259.803 84.2087 278.692C97.0451 297.58 114.307 313.041 134.49 323.727C154.672 334.413 177.163 340 200 340C222.837 340 245.327 334.413 265.51 323.727C285.693 313.041 302.955 297.58 315.791 278.692C328.628 259.804 336.648 238.062 339.155 215.363C340.558 202.649 340.208 189.852 338.151 177.322C335.467 160.972 342.657 143.518 358.062 137.419Z" fill="#3B4559"/>
<path d="M154.8 209.3C154.8 215.1 153.633 219.9 151.3 223.7C148.967 227.5 145.867 230.333 142 232.2C138.133 234.067 133.967 235 129.5 235C125.9 235 122.5 234.467 119.3 233.4C116.1 232.267 113.267 230.433 110.8 227.9C108.333 225.3 106.4 221.767 105 217.3C103.6 212.833 102.9 207.267 102.9 200.6C102.9 188.333 105.7 178.733 111.3 171.8C116.9 164.867 125.1 161.4 135.9 161.4C141.5 161.4 146.4 162.567 150.6 164.9V179C145.867 176.733 141.333 175.6 137 175.6C132 175.6 128.3 177 125.9 179.8C123.5 182.533 121.933 186.867 121.2 192.8C122.6 190.8 124.433 189.2 126.7 188C128.967 186.733 131.767 186.1 135.1 186.1C138.433 186.1 141.6 186.867 144.6 188.4C147.6 189.933 150.033 192.4 151.9 195.8C153.833 199.2 154.8 203.7 154.8 209.3ZM128.8 220.9C130.867 220.9 132.567 220 133.9 218.2C135.233 216.333 135.9 213.6 135.9 210C135.9 206.533 135.267 203.967 134 202.3C132.733 200.633 131.067 199.8 129 199.8C126.933 199.8 125.233 200.633 123.9 202.3C122.633 203.967 122 206.533 122 210C121.867 213.6 122.433 216.333 123.7 218.2C125.033 220 126.733 220.9 128.8 220.9ZM209.459 234H160.659V217.6C166.126 213.733 170.693 210.3 174.359 207.3C178.026 204.3 180.926 201.6 183.059 199.2C185.193 196.733 186.726 194.433 187.659 192.3C188.593 190.167 189.059 187.967 189.059 185.7C189.059 182.7 188.193 180.367 186.459 178.7C184.726 176.967 182.326 176.1 179.259 176.1C173.726 176.1 168.026 178.433 162.159 183.1V167.9C168.293 163.633 175.426 161.5 183.559 161.5C191.759 161.5 198.159 163.5 202.759 167.5C207.359 171.5 209.659 177.067 209.659 184.2C209.659 188.2 208.693 192 206.759 195.6C204.893 199.133 201.793 202.833 197.459 206.7C193.193 210.5 187.393 214.767 180.059 219.5H209.459V234ZM262.062 180.7C262.062 186.633 260.728 191.3 258.062 194.7C255.395 198.1 251.662 199.8 246.862 199.8C242.062 199.8 238.295 198.2 235.562 195C232.828 191.733 231.462 187.133 231.462 181.2C231.462 175.067 232.828 170.367 235.562 167.1C238.295 163.767 242.062 162.1 246.862 162.1C251.662 162.1 255.395 163.7 258.062 166.9C260.728 170.033 262.062 174.633 262.062 180.7ZM248.662 234H236.462L280.862 162.4H293.162L248.662 234ZM243.662 180.9C243.662 184.1 243.928 186.333 244.462 187.6C244.995 188.8 245.795 189.4 246.862 189.4C247.862 189.4 248.628 188.8 249.162 187.6C249.762 186.333 250.062 184.1 250.062 180.9C250.062 177.767 249.762 175.6 249.162 174.4C248.628 173.133 247.862 172.5 246.862 172.5C245.795 172.5 244.995 173.133 244.462 174.4C243.928 175.6 243.662 177.767 243.662 180.9ZM298.062 215.4C298.062 221.333 296.695 226 293.962 229.4C291.295 232.8 287.562 234.5 282.762 234.5C277.962 234.5 274.195 232.9 271.462 229.7C268.795 226.433 267.462 221.833 267.462 215.9C267.462 209.767 268.795 205.067 271.462 201.8C274.195 198.467 277.962 196.8 282.762 196.8C287.562 196.8 291.295 198.4 293.962 201.6C296.695 204.733 298.062 209.333 298.062 215.4ZM279.562 215.7C279.562 218.833 279.828 221.033 280.362 222.3C280.962 223.5 281.795 224.1 282.862 224.1C283.862 224.1 284.628 223.5 285.162 222.3C285.762 221.033 286.062 218.833 286.062 215.7C286.062 212.567 285.762 210.367 285.162 209.1C284.628 207.833 283.828 207.2 282.762 207.2C281.695 207.2 280.895 207.833 280.362 209.1C279.828 210.367 279.562 212.567 279.562 215.7Z" fill="#3B4559"/>
</svg>