<svg xmlns="http://www.w3.org/2000/svg" width="200" height="200" viewBox="0 0 400 400" fill="none">
<path d="M170.48 367.417C148.494 363.541 127.488 355.372 108.659 343.377C89.8306 331.381 73.5491 315.795 60.7441 297.508C47.9392 279.221 38.8616 258.59 34.0297 236.795C29.1977 214.999 28.706 192.465 32.5827 170.48C36.4593 148.494 44.6284 127.488 56.6235 108.659C68.6185 89.8306 84.2047 73.5491 102.492 60.7441C120.779 47.9392 141.41 38.8616 163.205 34.0297C185.001 29.1977 207.535 28.706 229.52 32.5827C251.506 36.4593 272.512 44.6284 291.341 56.6235C310.169 68.6185 326.451 84.2047 339.256 102.492C352.061 120.779 361.138 141.41 365.97 163.205C370.802 185.001 371.294 207.535 367.417 229.52C363.541 251.506 355.372 272.512 343.377 291.341C331.381 310.169 315.795 326.451 297.508 339.256C279.221 352.061 258.59 361.138 236.795 365.97C214.999 370.802 192.465 371.294 170.48 367.417L170.48 367.417Z" stroke="#E7EBF0" stroke-width="60"/>
<path d="M287.556 54.2816C296.09 40.0796 314.703 35.3252 327.471 45.8852C353.266 67.2208 373.423 94.8024 385.891 126.213C402.068 166.967 404.403 211.908 392.538 254.12C380.673 296.332 355.265 333.475 320.223 359.832C285.182 386.19 242.45 400.301 198.604 399.995C154.757 399.689 112.226 384.982 77.5563 358.138C42.8865 331.293 17.9993 293.799 6.72471 251.426C-4.54988 209.053 -1.58695 164.149 15.1575 123.624C28.0629 92.391 48.6035 65.0934 74.694 44.1202C87.6074 33.7395 106.153 38.7533 114.487 53.0731C122.821 67.3929 117.677 85.5555 105.457 96.7445C90.4241 110.509 78.486 127.476 70.6102 146.537C58.8891 174.904 56.8151 206.337 64.7073 235.998C72.5995 265.66 90.0206 291.905 114.289 310.696C138.558 329.487 168.33 339.782 199.022 339.997C229.715 340.211 259.627 330.333 284.156 311.883C308.685 293.432 326.471 267.432 334.777 237.884C343.082 208.336 341.448 176.877 330.124 148.349C322.515 129.18 310.815 112.048 295.975 98.0748C283.913 86.7163 279.023 68.4836 287.556 54.2816Z" fill="#3B4559"/>
<path d="M129.1 235C123.967 235 119.433 234.233 115.5 232.7C111.567 231.1 108.467 228.833 106.2 225.9C103.933 222.967 102.8 219.433 102.8 215.3C102.8 210.7 104.067 206.867 106.6 203.8C109.2 200.733 112.7 198.467 117.1 197C113.3 195.733 110.3 193.733 108.1 191C105.9 188.267 104.8 184.767 104.8 180.5C104.8 176.5 105.833 173.1 107.9 170.3C110.033 167.433 112.933 165.267 116.6 163.8C120.267 162.267 124.433 161.5 129.1 161.5C133.7 161.5 137.833 162.233 141.5 163.7C145.167 165.167 148.067 167.3 150.2 170.1C152.333 172.833 153.4 176.233 153.4 180.3C153.4 184.633 152.267 188.2 150 191C147.733 193.733 144.733 195.733 141 197C145.267 198.4 148.7 200.6 151.3 203.6C153.9 206.6 155.2 210.367 155.2 214.9C155.2 219.1 154.033 222.7 151.7 225.7C149.433 228.7 146.333 231 142.4 232.6C138.533 234.2 134.1 235 129.1 235ZM129.1 190.1C130.9 190.1 132.367 189.467 133.5 188.2C134.633 186.933 135.2 185.1 135.2 182.7C135.2 180.3 134.633 178.467 133.5 177.2C132.367 175.933 130.9 175.3 129.1 175.3C127.3 175.3 125.833 175.933 124.7 177.2C123.567 178.467 123 180.3 123 182.7C123 185.1 123.567 186.933 124.7 188.2C125.833 189.467 127.3 190.1 129.1 190.1ZM129 220.8C131 220.8 132.633 220.067 133.9 218.6C135.233 217.133 135.9 215 135.9 212.2C135.9 209.4 135.233 207.267 133.9 205.8C132.633 204.333 131 203.6 129 203.6C126.933 203.6 125.233 204.333 123.9 205.8C122.633 207.267 122 209.4 122 212.2C122 215 122.633 217.133 123.9 218.6C125.233 220.067 126.933 220.8 129 220.8ZM170.659 204.1V190.2H179.259C181.859 190.2 183.926 189.633 185.459 188.5C187.059 187.3 187.859 185.467 187.859 183C187.859 178.133 184.859 175.7 178.859 175.7C173.393 175.7 167.826 177.667 162.159 181.6V167.3C167.626 163.433 174.359 161.5 182.359 161.5C190.293 161.5 196.393 163.3 200.659 166.9C204.993 170.5 207.159 175.133 207.159 180.8C207.159 185.067 205.826 188.567 203.159 191.3C200.493 194.033 197.126 195.767 193.059 196.5C197.726 197.167 201.626 198.933 204.759 201.8C207.893 204.6 209.459 208.533 209.459 213.6C209.459 217.8 208.326 221.5 206.059 224.7C203.859 227.9 200.659 230.433 196.459 232.3C192.326 234.1 187.359 235 181.559 235C173.093 235 166.059 233.1 160.459 229.3V214.7C166.459 218.7 172.593 220.7 178.859 220.7C182.593 220.7 185.293 219.933 186.959 218.4C188.693 216.867 189.559 214.7 189.559 211.9C189.559 209.033 188.693 207.033 186.959 205.9C185.226 204.7 182.493 204.1 178.759 204.1H170.659ZM262.062 180.7C262.062 186.633 260.728 191.3 258.062 194.7C255.395 198.1 251.662 199.8 246.862 199.8C242.062 199.8 238.295 198.2 235.562 195C232.828 191.733 231.462 187.133 231.462 181.2C231.462 175.067 232.828 170.367 235.562 167.1C238.295 163.767 242.062 162.1 246.862 162.1C251.662 162.1 255.395 163.7 258.062 166.9C260.728 170.033 262.062 174.633 262.062 180.7ZM248.662 234H236.462L280.862 162.4H293.162L248.662 234ZM243.662 180.9C243.662 184.1 243.928 186.333 244.462 187.6C244.995 188.8 245.795 189.4 246.862 189.4C247.862 189.4 248.628 188.8 249.162 187.6C249.762 186.333 250.062 184.1 250.062 180.9C250.062 177.767 249.762 175.6 249.162 174.4C248.628 173.133 247.862 172.5 246.862 172.5C245.795 172.5 244.995 173.133 244.462 174.4C243.928 175.6 243.662 177.767 243.662 180.9ZM298.062 215.4C298.062 221.333 296.695 226 293.962 229.4C291.295 232.8 287.562 234.5 282.762 234.5C277.962 234.5 274.195 232.9 271.462 229.7C268.795 226.433 267.462 221.833 267.462 215.9C267.462 209.767 268.795 205.067 271.462 201.8C274.195 198.467 277.962 196.8 282.762 196.8C287.562 196.8 291.295 198.4 293.962 201.6C296.695 204.733 298.062 209.333 298.062 215.4ZM279.562 215.7C279.562 218.833 279.828 221.033 280.362 222.3C280.962 223.5 281.795 224.1 282.862 224.1C283.862 224.1 284.628 223.5 285.162 222.3C285.762 221.033 286.062 218.833 286.062 215.7C286.062 212.567 285.762 210.367 285.162 209.1C284.628 207.833 283.828 207.2 282.762 207.2C281.695 207.2 280.895 207.833 280.362 209.1C279.828 210.367 279.562 212.567 279.562 215.7Z" fill="#3B4559"/>
</svg>